HIERARCHY
ROOT pelvis
{
  OFFSET 0 100 0
  CHANNELS 6 Xposition Yposition Zposition Zrotation Xrotation Yrotation
  JOINT pelvis_right_femur
  {
    OFFSET -10.78128 -3.44521 -0.5502486
    CHANNELS 3 Zrotation Xrotation Yrotation
    JOINT right_femur_tibia
    {
      OFFSET -0.8047443 -44.0398 -0.1307829
      CHANNELS 3 Zrotation Xrotation Yrotation
      JOINT right_tibia_foot
      {
        OFFSET 3.006224 -47.83518 -5
        CHANNELS 3 Zrotation Xrotation Yrotation
        End Site
        {
          OFFSET 0 -5 15
        }
      }
    }
  }
  JOINT pelvis_left_femur
  {
    OFFSET 10.78128 -3.44521 -0.5502486
    CHANNELS 3 Zrotation Xrotation Yrotation
    JOINT left_femur_tibia
    {
      OFFSET 0.8047443 -44.0398 -0.1307829
      CHANNELS 3 Zrotation Xrotation Yrotation
      JOINT left_tibia_foot
      {
        OFFSET -4.370144 -48.10324 -4.275266
        CHANNELS 3 Zrotation Xrotation Yrotation
        End Site
        {
          OFFSET 0 -5 15
        }
      }
    }
  }
  JOINT pelvis_spine1
  {
    OFFSET 0 6.468898 -3.129235
    CHANNELS 3 Zrotation Xrotation Yrotation
    JOINT spine1
    {
      OFFSET 0 23.15396 4.99043
      CHANNELS 3 Zrotation Xrotation Yrotation
      JOINT spine2
      {
        OFFSET 0 20.79997 -5.064912
        CHANNELS 3 Zrotation Xrotation Yrotation
        JOINT neck
        {
          OFFSET 0 14.38658 9.616178
          CHANNELS 3 Zrotation Xrotation Yrotation
          End Site
          {
            OFFSET 0 20 0
          }
        }
      }
      JOINT right_manubrium
      {
        OFFSET -5.722621 16.35077 3.967754
        CHANNELS 3 Zrotation Xrotation Yrotation
        JOINT right_clavicle
        {
          OFFSET -13.16364 1.694482 -4.693211
          CHANNELS 3 Zrotation Xrotation Yrotation
          JOINT right_humerus
          {
            OFFSET -28.5034 -0.3100689 -2.792744
            CHANNELS 3 Zrotation Xrotation Yrotation
            JOINT right_radius
            {
              OFFSET -25.15693 0.02248979 -1.271978
              CHANNELS 3 Zrotation Xrotation Yrotation
              End Site
              {
                OFFSET -15 0 0
              }
            }
          }
        }
      }
      JOINT left_manubrium
      {
        OFFSET 5.722621 16.35077 3.967754
        CHANNELS 3 Zrotation Xrotation Yrotation
        JOINT left_clavicle
        {
          OFFSET 13.16364 1.694482 -4.693211
          CHANNELS 3 Zrotation Xrotation Yrotation
          JOINT left_humerus
          {
            OFFSET 29.39168 -1.063119 -2.237045
            CHANNELS 3 Zrotation Xrotation Yrotation
            JOINT left_radius
            {
              OFFSET 24.59957 -0.9528479 0.9047498
              CHANNELS 3 Zrotation Xrotation Yrotation
              End Site
              {
                OFFSET 15 -0 -0
              }
            }
          }
        }
      }
    }
  }
}
MOTION
Frames: 9
Frame Time: 0.0416666666667
345.0903 103.3568 3148.744 2.765361 -6.543099 3.415454 -0.9141704 8.146348 4.180662 -0 50.70885 -0 1.041818 5.62403 -3.361527 -5.388665 -12.20047 -7.773623 -0 21.74642 -0 -1.808221 -10.17293 18.24283 1.335388 -4.56674 3.857866 1.176263 13.87822 -7.859462 1.795622 20.91855 5.531396 2.227746 -21.6174 6.85581 -3.23628 -19.59649 11.22862 97.00655 12.98057 -25.21151 -0 0 6.083268 -22.34687 13.65568 13.39988 4.910198 -29.63563 -8.290635 -86.58096 17.27278 14.43775 0 0 -34.65607 4.085702 14.59713 12.80082
346.4125 104.6265 3154.806 2.443589 -6.907782 4.519022 -0.3797136 0.7554059 3.743438 -0 54.85824 -0 0.2536154 5.981255 -4.554675 -5.543876 -6.592321 -8.091515 -0 20.19466 -0 -0.8898628 -11.29288 17.35348 1.589853 -4.334674 4.41708 1.087724 13.93511 -7.897558 1.859057 20.62303 5.122476 1.823783 -21.87752 6.734776 -4.348898 -20.47152 10.94557 98.1241 13.84729 -24.92622 -0 0 6.617251 -21.61059 13.22329 13.19496 4.077497 -29.30587 -8.336474 -85.92288 16.69127 15.39341 0 0 -36.5998 3.307071 13.44211 13.95139
347.6148 105.5959 3160.334 1.931666 -7.078629 5.627227 0.3808118 -6.575607 3.254146 -0 53.53501 -0 -0.5357783 4.586748 -5.639527 -5.307465 -1.021434 -8.399757 -0 17.5594 -0 -0.9478228 -13.07258 16.51669 1.801227 -3.972806 4.881309 1.048808 13.77462 -7.969166 1.910174 20.33146 4.79773 1.390992 -22.40506 6.733397 -5.606468 -21.23089 10.56507 99.47188 14.87569 -24.80418 -0 0 6.889163 -20.60028 12.43314 12.80739 3.225694 -28.89685 -8.268817 -85.00885 16.24683 16.01286 0 0 -38.92592 2.473983 12.01463 15.20116
348.709 105.9959 3165.586 1.577781 -6.90784 6.620938 0.8946268 -12.94871 2.576229 -0 46.93838 -0 -1.061432 2.838463 -6.388235 -5.033261 3.925955 -8.596184 -0 14.79653 -0 -1.714935 -15.39276 15.68243 1.959812 -3.561187 5.164621 1.099366 13.41175 -8.094826 1.933347 20.07702 4.637305 1.023911 -23.15197 6.851826 -6.796544 -21.69311 10.15238 100.8505 15.84249 -24.98074 -0 0 6.733867 -19.47091 11.44129 12.29045 2.515861 -28.56734 -8.115217 -83.94208 16.00473 16.00369 0 0 -41.52396 1.745775 10.52942 16.33339
349.7129 105.7421 3170.833 1.492926 -6.383619 7.453907 1.000506 -18.15182 1.700796 -0 37.2676 -0 -1.233982 1.375419 -6.78849 -4.916747 8.068126 -8.606239 -0 12.71325 -0 -2.634647 -17.77372 14.7954 2.067661 -3.17088 5.194849 1.288336 12.86131 -8.304088 1.908804 19.87076 4.713377 0.8042615 -24.11006 7.096246 -7.718793 -21.74107 9.773279 102.0456 16.53481 -25.53195 -0 0 6.06974 -18.34715 10.42108 11.67326 2.093406 -28.45523 -7.895641 -82.82532 16.00809 15.10094 0 0 -44.27564 1.264614 9.172121 17.12011
350.6492 104.9207 3176.277 1.589591 -5.638658 8.122302 0.8588908 -22.2425 0.8401024 -0 27.15233 -0 -1.112314 0.3767384 -6.995467 -4.964709 11.45305 -8.431024 -0 11.87772 -0 -3.314974 -19.69806 13.96142 2.127551 -2.830032 4.936206 1.650889 12.13224 -8.617772 1.820782 19.69975 5.057487 0.765877 -25.3081 7.477903 -8.256256 -21.37825 9.46616 102.894 16.8578 -26.41908 -0 0 4.962747 -17.27654 9.492919 10.95911 2.030296 -28.60043 -7.60392 -81.73483 16.26238 13.21342 0 0 -47.01412 1.113163 8.036766 17.38728
351.5352 103.7338 3182.052 1.721909 -4.846995 8.644741 0.7615694 -25.26453 0.2756703 -0 18.52316 -0 -0.8222877 -0.06596873 -7.166875 -5.082495 14.17444 -8.108043 -0 12.65838 -0 -3.695513 -20.80413 13.3156 2.133974 -2.520743 4.409836 2.177698 11.24789 -9.026197 1.667591 19.53868 5.637457 0.8876329 -26.74916 7.996611 -8.399758 -20.7322 9.234884 103.3249 16.88561 -27.48466 -0 0 3.636507 -16.24848 8.704736 10.15866 2.300265 -28.91616 -7.21439 -80.72459 16.73206 10.53415 0 0 -49.48105 1.293123 7.118023 17.07288
352.3753 102.4485 3188.241 1.761261 -4.157739 9.044552 0.9821496 -27.14433 0.2450983 -0 12.47546 -0 -0.490077 0.01720157 -7.391265 -5.146911 16.26047 -7.705927 -0 15.29116 -0 -3.994614 -20.87696 12.88603 2.077675 -2.210767 3.697841 2.800822 10.27416 -9.48318 1.466645 19.36946 6.363756 1.118356 -28.33878 8.620635 -8.219695 -19.98778 9.066207 103.3679 16.80246 -28.5255 -0 0 2.382039 -15.25939 8.064359 9.318695 2.804622 -29.24499 -6.716968 -79.8409 17.35141 7.498964 0 0 -51.37872 1.732501 6.359958 16.25169
353.1636 101.3535 3194.872 1.627139 -3.680065 9.329255 1.682986 -27.67709 0.8836868 -0 9.443972 -0 -0.2031901 0.4017427 -7.686934 -5.043482 17.60218 -7.310974 -0 19.88856 -0 -4.547672 -19.79843 12.59674 1.957314 -1.889008 2.919334 3.415335 9.31885 -9.923891 1.249147 19.19462 7.123613 1.406174 -29.88412 9.284035 -7.817008 -19.29755 8.949526 103.1241 16.77844 -29.38753 -0 0 1.425335 -14.357 7.576987 8.515178 3.425463 -29.45404 -6.144801 -79.12652 18.04514 4.603928 0 0 -52.49272 2.318274 5.717254 15.10491
